<?xml version="1.0" encoding="iso-8859-1"?>
<!DOCTYPE svg PUBLIC "-//W3C//DTD SVG 1.1//EN" "http://www.w3.org/Graphics/SVG/1.1/DTD/svg11.dtd">
<svg 
 version="1.1" xmlns="http://www.w3.org/2000/svg" xmlns:xlink="http://www.w3.org/1999/xlink" x="0px" y="0px" width="512px"
	 height="512px" viewBox="0 0 512 512" enable-background="new 0 0 512 512" xml:space="preserve"
><g id="5151e0c8492e5103c096af88a5074647"><g></g><g fill="#ffffff"><path display="inline" d="M432.207,253.274V67.157l-0.124,0.057c0.041-0.551,0.124-1.098,0.124-1.652
		c0-35.932-86.778-65.063-193.828-65.063C131.33,0.5,44.552,29.631,44.552,65.563v346.408h0.059
		c1.122,32.141,71.636,58.671,163.607,63.496c27.381,22.515,62.43,36.033,100.645,36.033c87.587,0,158.586-70.999,158.586-158.586
		C467.448,315.16,454.232,280.507,432.207,253.274z M112.811,436.75c-32.405-10.152-33.833-20.938-35.955-24.779v-78.509
		c18.383,9.3,43.726,16.892,73.485,22.006c0.568,35.819,13.002,68.737,33.555,95.024C157.527,447.79,133.223,443.145,112.811,436.75
		z M151.646,332.357c-13.997-2.491-27.071-5.586-38.834-9.275c-32.405-10.146-33.833-20.938-35.955-24.771v-80.059
		c26.515,13.41,67.445,23.315,115.362,27.252C170.567,269.002,155.961,299.061,151.646,332.357z M308.862,452.03l-88.104-106.743
		h56.971v-91.49h62.265v91.49h56.972L308.862,452.03z M399.904,183.096c-2.006,3.624-3.424,13.448-30.87,23.081
		c-18.557-7.62-38.869-11.849-60.172-11.849c-34.388,0-66.194,10.982-92.179,29.578c-38.948-1.512-75.232-7.06-103.873-16.032
		c-32.405-10.151-33.833-20.94-35.955-24.777V101.52c34.72,17.54,94.09,29.105,161.523,29.105
		c67.434,0,126.801-11.565,161.525-29.105V183.096z M363.947,91.112c-33.899,10.621-78.494,16.47-125.568,16.47
		c-47.073,0-91.668-5.849-125.568-16.47c-34.914-10.936-44.676-22.625-45.61-25.55c0.934-2.925,10.7-14.615,45.614-25.552
		c33.903-10.621,78.495-16.468,125.564-16.468c47.07,0,91.662,5.847,125.565,16.468c34.914,10.937,44.681,22.626,45.614,25.552
		C408.625,68.488,398.861,80.177,363.947,91.112z"></path></g></g></svg>